<svg width="16" height="16" viewBox="0 0 16 16" fill="none" xmlns="http://www.w3.org/2000/svg">
<path d="M13.7555 2.44398C12.6566 1.30565 11.2447 0.518765 9.69857 0.182827C8.1524 -0.15311 6.54133 -0.0230089 5.06909 0.556679C3.59685 1.13637 2.32958 2.1396 1.42752 3.43953C0.525454 4.73945 0.0291212 6.27767 0.00128253 7.85968C-0.0265561 9.44168 0.415349 10.9964 1.27112 12.3273C2.12689 13.6581 3.35808 14.7053 4.80901 15.3365C6.25994 15.9676 7.86543 16.1543 9.42247 15.873C10.9795 15.5916 12.4182 14.8549 13.5565 13.7559C15.0807 12.281 15.9576 10.2618 15.9949 8.14112C16.0322 6.02048 15.2269 3.97162 13.7555 2.44398ZM2.92165 12.9032C1.95198 11.8988 1.30193 10.6294 1.0537 9.25552C0.805464 7.88166 0.970201 6.46505 1.52708 5.18482C2.08395 3.90458 3.00796 2.81824 4.18224 2.06315C5.35653 1.30806 6.72835 0.918141 8.12424 0.942704C9.52012 0.967268 10.8774 1.40521 12.0244 2.20115C13.1714 2.99708 14.0566 4.11527 14.5681 5.4143C15.0796 6.71333 15.1943 8.13486 14.8979 9.49914C14.6015 10.8634 13.9072 12.1091 12.9028 13.0788C11.5549 14.3772 9.74709 15.0878 7.8759 15.0549C6.00471 15.022 4.223 14.2482 2.92165 12.9032ZM10.5059 10.5961C10.4161 10.6827 10.2956 10.7302 10.1708 10.728C10.046 10.7258 9.92717 10.6741 9.84048 10.5843L7.98833 8.66584L6.06983 10.518C5.98004 10.6047 5.85949 10.6521 5.7347 10.6499C5.60991 10.6478 5.49111 10.5961 5.40442 10.5063C5.31774 10.4165 5.27027 10.2959 5.27247 10.1712C5.27466 10.0464 5.32634 9.92756 5.41613 9.84087L7.33463 7.98872L5.48248 6.07022C5.3958 5.98043 5.34833 5.85988 5.35053 5.73509C5.35272 5.6103 5.4044 5.4915 5.49419 5.40481C5.58398 5.31813 5.70453 5.27066 5.82932 5.27286C5.95411 5.27505 6.07292 5.32673 6.1596 5.41652L8.01175 7.33502L9.93025 5.48287C10.02 5.39619 10.1406 5.34872 10.2654 5.35092C10.3902 5.35311 10.509 5.40479 10.5957 5.49458C10.6823 5.58438 10.7298 5.70493 10.7276 5.82971C10.7254 5.9545 10.6737 6.07331 10.584 6.15999L8.66545 8.01214L10.5176 9.93064C10.6043 10.0204 10.6518 10.141 10.6496 10.2658C10.6474 10.3906 10.5957 10.5094 10.5059 10.5961Z" fill="white"/>
</svg>
