<svg width="20" height="20" viewBox="0 0 20 20" fill="none" xmlns="http://www.w3.org/2000/svg">
<path d="M14.5719 12.7775L15.5719 11.7775C15.7281 11.6213 16 11.7307 16 11.9557V16.4994C16 17.3275 15.3281 17.9994 14.5 17.9994H3.5C2.67187 17.9994 2 17.3275 2 16.4994V5.49941C2 4.67129 2.67187 3.99941 3.5 3.99941H12.0469C12.2687 3.99941 12.3812 4.26816 12.225 4.42754L11.225 5.42754C11.1781 5.47441 11.1156 5.49941 11.0469 5.49941H3.5V16.4994H14.5V12.9525C14.5 12.8869 14.525 12.8244 14.5719 12.7775ZM19.4656 6.47129L11.2594 14.6775L8.43437 14.99C7.61562 15.0807 6.91875 14.39 7.00937 13.565L7.32187 10.74L15.5281 2.53379C16.2437 1.81816 17.4 1.81816 18.1125 2.53379L19.4625 3.88379C20.1781 4.59941 20.1781 5.75879 19.4656 6.47129ZM16.3781 7.43691L14.5625 5.62129L8.75625 11.4307L8.52812 13.4713L10.5687 13.2432L16.3781 7.43691ZM18.4031 4.94629L17.0531 3.59629C16.925 3.46816 16.7156 3.46816 16.5906 3.59629L15.625 4.56191L17.4406 6.37754L18.4062 5.41191C18.5312 5.28066 18.5312 5.07441 18.4031 4.94629Z" fill="#008F8F"/>
</svg>
