<svg width="20" height="16" viewBox="0 0 20 16" fill="none" xmlns="http://www.w3.org/2000/svg">
<path d="M14.4282 8.63848H11.2428V4.77378C11.2428 4.46874 10.9912 4.22168 10.6806 4.22168H7.30779C6.99721 4.22168 6.74566 4.46874 6.74566 4.77378V6.43008H5.24662V4.58975C5.24662 4.38639 5.07892 4.22168 4.87186 4.22168H4.4971C4.29005 4.22168 4.12234 4.38639 4.12234 4.58975V6.43008H2.62331V4.58975C2.62331 4.38639 2.45561 4.22168 2.24855 4.22168H1.87379C1.66674 4.22168 1.49903 4.38639 1.49903 4.58975V6.43008H0.562138C0.251557 6.43008 0 6.67714 0 6.98218V15.2637C0 15.6702 0.335643 15.9998 0.749517 15.9998H14.2408C14.6547 15.9998 14.9903 15.6702 14.9903 15.2637V9.19058C14.9903 8.88554 14.7386 8.63848 14.4282 8.63848ZM2.99807 13.5154C2.99807 13.6679 2.87229 13.7914 2.717 13.7914H1.7801C1.62481 13.7914 1.49903 13.6679 1.49903 13.5154V12.5952C1.49903 12.4427 1.62481 12.3191 1.7801 12.3191H2.717C2.87229 12.3191 2.99807 12.4427 2.99807 12.5952V13.5154ZM2.99807 11.307C2.99807 11.4595 2.87229 11.583 2.717 11.583H1.7801C1.62481 11.583 1.49903 11.4595 1.49903 11.307V10.3868C1.49903 10.2343 1.62481 10.1107 1.7801 10.1107H2.717C2.87229 10.1107 2.99807 10.2343 2.99807 10.3868V11.307ZM2.99807 9.09856C2.99807 9.25108 2.87229 9.37461 2.717 9.37461H1.7801C1.62481 9.37461 1.49903 9.25108 1.49903 9.09856V8.1784C1.49903 8.02588 1.62481 7.90235 1.7801 7.90235H2.717C2.87229 7.90235 2.99807 8.02588 2.99807 8.1784V9.09856ZM5.99614 13.5154C5.99614 13.6679 5.87036 13.7914 5.71507 13.7914H4.77817C4.62288 13.7914 4.4971 13.6679 4.4971 13.5154V12.5952C4.4971 12.4427 4.62288 12.3191 4.77817 12.3191H5.71507C5.87036 12.3191 5.99614 12.4427 5.99614 12.5952V13.5154ZM5.99614 11.307C5.99614 11.4595 5.87036 11.583 5.71507 11.583H4.77817C4.62288 11.583 4.4971 11.4595 4.4971 11.307V10.3868C4.4971 10.2343 4.62288 10.1107 4.77817 10.1107H5.71507C5.87036 10.1107 5.99614 10.2343 5.99614 10.3868V11.307ZM5.99614 9.09856C5.99614 9.25108 5.87036 9.37461 5.71507 9.37461H4.77817C4.62288 9.37461 4.4971 9.25108 4.4971 9.09856V8.1784C4.4971 8.02588 4.62288 7.90235 4.77817 7.90235H5.71507C5.87036 7.90235 5.99614 8.02588 5.99614 8.1784V9.09856ZM9.74372 11.307C9.74372 11.4595 9.61795 11.583 9.46266 11.583H8.52576C8.37047 11.583 8.24469 11.4595 8.24469 11.307V10.3868C8.24469 10.2343 8.37047 10.1107 8.52576 10.1107H9.46266C9.61795 10.1107 9.74372 10.2343 9.74372 10.3868V11.307ZM9.74372 9.09856C9.74372 9.25108 9.61795 9.37461 9.46266 9.37461H8.52576C8.37047 9.37461 8.24469 9.25108 8.24469 9.09856V8.1784C8.24469 8.02588 8.37047 7.90235 8.52576 7.90235H9.46266C9.61795 7.90235 9.74372 8.02588 9.74372 8.1784V9.09856ZM9.74372 6.89016C9.74372 7.04268 9.61795 7.16621 9.46266 7.16621H8.52576C8.37047 7.16621 8.24469 7.04268 8.24469 6.89016V5.97C8.24469 5.81748 8.37047 5.69395 8.52576 5.69395H9.46266C9.61795 5.69395 9.74372 5.81748 9.74372 5.97V6.89016ZM13.4913 13.5154C13.4913 13.6679 13.3655 13.7914 13.2102 13.7914H12.2733C12.1181 13.7914 11.9923 13.6679 11.9923 13.5154V12.5952C11.9923 12.4427 12.1181 12.3191 12.2733 12.3191H13.2102C13.3655 12.3191 13.4913 12.4427 13.4913 12.5952V13.5154ZM13.4913 11.307C13.4913 11.4595 13.3655 11.583 13.2102 11.583H12.2733C12.1181 11.583 11.9923 11.4595 11.9923 11.307V10.3868C11.9923 10.2343 12.1181 10.1107 12.2733 10.1107H13.2102C13.3655 10.1107 13.4913 10.2343 13.4913 10.3868V11.307Z" fill="#515A6E"/>
<path d="M18.0797 3.66011L19.8196 1.9202C20.06 1.67982 20.06 1.29063 19.8196 1.05024L18.9497 0.180287C18.7093 -0.0600957 18.3201 -0.0600957 18.0797 0.180287L16.3398 1.9202L14.5999 0.180287C14.3595 -0.0600957 13.9703 -0.0600957 13.7299 0.180287L12.86 1.05024C12.6196 1.29063 12.6196 1.67982 12.86 1.9202L14.5999 3.66011L12.86 5.40002C12.6196 5.64041 12.6196 6.0296 12.86 6.26998L13.7299 7.13994C13.9703 7.38032 14.3595 7.38032 14.5999 7.13994L16.3398 5.40002L18.0797 7.13994C18.3201 7.38032 18.7093 7.38032 18.9497 7.13994L19.8196 6.26998C20.06 6.0296 20.06 5.64041 19.8196 5.40002L18.0797 3.66011Z" fill="#515A6E"/>
</svg>
